<svg xmlns="http://www.w3.org/2000/svg" xmlns:xlink="http://www.w3.org/1999/xlink" width="500" zoomAndPan="magnify" viewBox="0 0 375 374.999991" height="500" preserveAspectRatio="xMidYMid meet" version="1.0"><defs><g/><clipPath id="0b9f58edd7"><path d="M 19 143 L 310 143 L 310 235.160156 L 19 235.160156 Z M 19 143 " clip-rule="nonzero"/></clipPath><clipPath id="421cabaf52"><rect x="0" width="291" y="0" height="93"/></clipPath><clipPath id="91c7dd60f7"><path d="M 102 0.921875 L 375 0.921875 L 375 145 L 102 145 Z M 102 0.921875 " clip-rule="nonzero"/></clipPath><clipPath id="400d96f0c0"><rect x="0" width="273" y="0" height="145"/></clipPath><clipPath id="9e52b64b2e"><path d="M 0 0.921875 L 248 0.921875 L 248 145 L 0 145 Z M 0 0.921875 " clip-rule="nonzero"/></clipPath><clipPath id="6257ee7ba7"><rect x="0" width="248" y="0" height="145"/></clipPath><clipPath id="7487ee2c19"><rect x="0" width="375" y="0" height="236"/></clipPath></defs><g transform="matrix(1, 0, 0, 1, 0, 79)"><g clip-path="url(#7487ee2c19)"><g clip-path="url(#0b9f58edd7)"><g transform="matrix(1, 0, 0, 1, 19, 143)"><g clip-path="url(#421cabaf52)"><g fill="#00bf63" fill-opacity="1"><g transform="translate(225.567375, 92.086357)"><g><path d="M 0 -16.625 L -115.375 -16.625 L -115.375 -44.765625 L -98.21875 -44.765625 L -97.8125 -46.96875 C -104.226562 -49.757812 -108.929688 -53.421875 -111.921875 -57.953125 C -114.921875 -62.484375 -116.421875 -67.992188 -116.421875 -74.484375 C -116.421875 -81.035156 -115.304688 -86.019531 -113.078125 -89.4375 L -88.078125 -84.515625 L -87.65625 -82.328125 C -88.425781 -80.441406 -88.984375 -78.625 -89.328125 -76.875 C -89.679688 -75.132812 -89.859375 -73.007812 -89.859375 -70.5 C -89.859375 -62.414062 -87.015625 -56.242188 -81.328125 -51.984375 C -75.648438 -47.734375 -66.535156 -45.609375 -53.984375 -45.609375 L 0 -45.609375 Z M 0 -16.625 "/></g></g></g></g></g></g><g clip-path="url(#91c7dd60f7)"><g transform="matrix(1, 0, 0, 1, 102, 0)"><g clip-path="url(#400d96f0c0)"><g fill="#00bf63" fill-opacity="1"><g transform="translate(230.98783, 144.553803)"><g><path d="M 2.25 -58.578125 C 2.25 -49.191406 -0.0195312 -40.894531 -4.5625 -33.6875 C -9.113281 -26.488281 -15.992188 -20.847656 -25.203125 -16.765625 C -34.410156 -12.679688 -45.753906 -10.640625 -59.234375 -10.640625 C -72.773438 -10.640625 -84.148438 -12.734375 -93.359375 -16.921875 C -102.566406 -21.117188 -109.441406 -26.925781 -113.984375 -34.34375 C -118.535156 -41.757812 -120.8125 -50.34375 -120.8125 -60.09375 C -120.8125 -67.46875 -119.539062 -73.859375 -117 -79.265625 C -114.457031 -84.679688 -110.5 -89.253906 -105.125 -92.984375 L -105.65625 -95.234375 L -166.1875 -95.234375 L -166.1875 -125.015625 L 0 -125.015625 L 0 -95.234375 L -15.375 -95.234375 L -15.796875 -92.984375 C -10.210938 -89.679688 -5.804688 -85.164062 -2.578125 -79.4375 C 0.640625 -73.707031 2.25 -66.753906 2.25 -58.578125 Z M -23 -68.25 C -23 -76.632812 -25.988281 -83.265625 -31.96875 -88.140625 C -37.957031 -93.015625 -47.046875 -95.453125 -59.234375 -95.453125 C -71.410156 -95.453125 -80.507812 -93.015625 -86.53125 -88.140625 C -92.550781 -83.265625 -95.5625 -76.632812 -95.5625 -68.25 C -95.5625 -59.507812 -92.640625 -52.828125 -86.796875 -48.203125 C -80.953125 -43.585938 -71.765625 -41.28125 -59.234375 -41.28125 C -46.765625 -41.28125 -37.609375 -43.585938 -31.765625 -48.203125 C -25.921875 -52.828125 -23 -59.507812 -23 -68.25 Z M -23 -68.25 "/></g></g></g></g></g></g><g clip-path="url(#9e52b64b2e)"><g transform="matrix(1, 0, 0, 1, 0, 0)"><g clip-path="url(#6257ee7ba7)"><g fill="#00bf63" fill-opacity="1"><g transform="translate(181.116533, 144.553803)"><g><path d="M 2.25 -58.578125 C 2.25 -49.191406 -0.0195312 -40.894531 -4.5625 -33.6875 C -9.113281 -26.488281 -15.992188 -20.847656 -25.203125 -16.765625 C -34.410156 -12.679688 -45.753906 -10.640625 -59.234375 -10.640625 C -72.773438 -10.640625 -84.148438 -12.734375 -93.359375 -16.921875 C -102.566406 -21.117188 -109.441406 -26.925781 -113.984375 -34.34375 C -118.535156 -41.757812 -120.8125 -50.34375 -120.8125 -60.09375 C -120.8125 -67.46875 -119.539062 -73.859375 -117 -79.265625 C -114.457031 -84.679688 -110.5 -89.253906 -105.125 -92.984375 L -105.65625 -95.234375 L -166.1875 -95.234375 L -166.1875 -125.015625 L 0 -125.015625 L 0 -95.234375 L -15.375 -95.234375 L -15.796875 -92.984375 C -10.210938 -89.679688 -5.804688 -85.164062 -2.578125 -79.4375 C 0.640625 -73.707031 2.25 -66.753906 2.25 -58.578125 Z M -23 -68.25 C -23 -76.632812 -25.988281 -83.265625 -31.96875 -88.140625 C -37.957031 -93.015625 -47.046875 -95.453125 -59.234375 -95.453125 C -71.410156 -95.453125 -80.507812 -93.015625 -86.53125 -88.140625 C -92.550781 -83.265625 -95.5625 -76.632812 -95.5625 -68.25 C -95.5625 -59.507812 -92.640625 -52.828125 -86.796875 -48.203125 C -80.953125 -43.585938 -71.765625 -41.28125 -59.234375 -41.28125 C -46.765625 -41.28125 -37.609375 -43.585938 -31.765625 -48.203125 C -25.921875 -52.828125 -23 -59.507812 -23 -68.25 Z M -23 -68.25 "/></g></g></g></g></g></g></g></g></svg>