<svg xmlns="http://www.w3.org/2000/svg" xmlns:xlink="http://www.w3.org/1999/xlink" width="500" zoomAndPan="magnify" viewBox="0 0 375 374.999991" height="500" preserveAspectRatio="xMidYMid meet" version="1.0"><defs><g/><clipPath id="30847756cf"><rect x="0" width="375" y="0" height="261"/></clipPath><clipPath id="770932488b"><path d="M 156.941406 203.976562 L 229.074219 203.976562 L 229.074219 286.535156 L 156.941406 286.535156 Z M 156.941406 203.976562 " clip-rule="nonzero"/></clipPath><clipPath id="10c3f6063e"><path d="M 229.074219 245.195312 L 156.941406 286.414062 L 156.941406 203.976562 Z M 229.074219 245.195312 " clip-rule="nonzero"/></clipPath><clipPath id="962b4a856b"><path d="M 0.941406 0.976562 L 73.074219 0.976562 L 73.074219 83.414062 L 0.941406 83.414062 Z M 0.941406 0.976562 " clip-rule="nonzero"/></clipPath><clipPath id="9b829ab67e"><path d="M 73.074219 42.195312 L 0.941406 83.414062 L 0.941406 0.976562 Z M 73.074219 42.195312 " clip-rule="nonzero"/></clipPath><linearGradient x1="9.145139" gradientTransform="matrix(0, 0.28177, -0.28177, 0, 73.075024, 0.97608)" y1="265.140871" x2="283.428499" gradientUnits="userSpaceOnUse" y2="-9.142508" id="48bae65c51"><stop stop-opacity="1" stop-color="rgb(97.24884%, 67.83905%, 0%)" offset="0"/><stop stop-opacity="1" stop-color="rgb(97.24884%, 67.83905%, 0%)" offset="0.125"/><stop stop-opacity="1" stop-color="rgb(97.24884%, 67.83905%, 0%)" offset="0.140625"/><stop stop-opacity="1" stop-color="rgb(97.24884%, 67.83905%, 0%)" offset="0.148437"/><stop stop-opacity="1" stop-color="rgb(97.167969%, 67.411804%, 0.178528%)" offset="0.152344"/><stop stop-opacity="1" stop-color="rgb(97.088623%, 66.984558%, 0.357056%)" offset="0.15625"/><stop stop-opacity="1" stop-color="rgb(96.987915%, 66.4505%, 0.579834%)" offset="0.160156"/><stop stop-opacity="1" stop-color="rgb(96.887207%, 65.916443%, 0.802612%)" offset="0.164062"/><stop stop-opacity="1" stop-color="rgb(96.786499%, 65.382385%, 1.025391%)" offset="0.167969"/><stop stop-opacity="1" stop-color="rgb(96.685791%, 64.848328%, 1.249695%)" offset="0.171875"/><stop stop-opacity="1" stop-color="rgb(96.585083%, 64.31427%, 1.472473%)" offset="0.175781"/><stop stop-opacity="1" stop-color="rgb(96.484375%, 63.780212%, 1.695251%)" offset="0.179687"/><stop stop-opacity="1" stop-color="rgb(96.383667%, 63.246155%, 1.91803%)" offset="0.183594"/><stop stop-opacity="1" stop-color="rgb(96.284485%, 62.712097%, 2.142334%)" offset="0.1875"/><stop stop-opacity="1" stop-color="rgb(96.183777%, 62.17804%, 2.365112%)" offset="0.191406"/><stop stop-opacity="1" stop-color="rgb(96.083069%, 61.645508%, 2.589417%)" offset="0.195312"/><stop stop-opacity="1" stop-color="rgb(95.982361%, 61.11145%, 2.812195%)" offset="0.199219"/><stop stop-opacity="1" stop-color="rgb(95.881653%, 60.577393%, 3.034973%)" offset="0.203125"/><stop stop-opacity="1" stop-color="rgb(95.780945%, 60.043335%, 3.257751%)" offset="0.207031"/><stop stop-opacity="1" stop-color="rgb(95.680237%, 59.509277%, 3.482056%)" offset="0.210938"/><stop stop-opacity="1" stop-color="rgb(95.579529%, 58.97522%, 3.704834%)" offset="0.214844"/><stop stop-opacity="1" stop-color="rgb(95.478821%, 58.441162%, 3.927612%)" offset="0.21875"/><stop stop-opacity="1" stop-color="rgb(95.378113%, 57.907104%, 4.150391%)" offset="0.222656"/><stop stop-opacity="1" stop-color="rgb(95.277405%, 57.373047%, 4.374695%)" offset="0.226562"/><stop stop-opacity="1" stop-color="rgb(95.176697%, 56.838989%, 4.597473%)" offset="0.230469"/><stop stop-opacity="1" stop-color="rgb(95.077515%, 56.304932%, 4.820251%)" offset="0.234375"/><stop stop-opacity="1" stop-color="rgb(94.976807%, 55.770874%, 5.04303%)" offset="0.238281"/><stop stop-opacity="1" stop-color="rgb(94.876099%, 55.238342%, 5.267334%)" offset="0.242187"/><stop stop-opacity="1" stop-color="rgb(94.775391%, 54.704285%, 5.490112%)" offset="0.246094"/><stop stop-opacity="1" stop-color="rgb(94.674683%, 54.170227%, 5.714417%)" offset="0.25"/><stop stop-opacity="1" stop-color="rgb(94.573975%, 53.636169%, 5.937195%)" offset="0.253906"/><stop stop-opacity="1" stop-color="rgb(94.473267%, 53.102112%, 6.159973%)" offset="0.257812"/><stop stop-opacity="1" stop-color="rgb(94.372559%, 52.568054%, 6.382751%)" offset="0.261719"/><stop stop-opacity="1" stop-color="rgb(94.271851%, 52.033997%, 6.607056%)" offset="0.265625"/><stop stop-opacity="1" stop-color="rgb(94.171143%, 51.499939%, 6.829834%)" offset="0.269531"/><stop stop-opacity="1" stop-color="rgb(94.07196%, 50.965881%, 7.052612%)" offset="0.273438"/><stop stop-opacity="1" stop-color="rgb(93.971252%, 50.431824%, 7.275391%)" offset="0.277344"/><stop stop-opacity="1" stop-color="rgb(93.870544%, 49.899292%, 7.499695%)" offset="0.28125"/><stop stop-opacity="1" stop-color="rgb(93.769836%, 49.365234%, 7.722473%)" offset="0.285156"/><stop stop-opacity="1" stop-color="rgb(93.669128%, 48.831177%, 7.945251%)" offset="0.289062"/><stop stop-opacity="1" stop-color="rgb(93.56842%, 48.297119%, 8.16803%)" offset="0.292969"/><stop stop-opacity="1" stop-color="rgb(93.467712%, 47.763062%, 8.392334%)" offset="0.296875"/><stop stop-opacity="1" stop-color="rgb(93.367004%, 47.229004%, 8.615112%)" offset="0.300781"/><stop stop-opacity="1" stop-color="rgb(93.266296%, 46.694946%, 8.839417%)" offset="0.304688"/><stop stop-opacity="1" stop-color="rgb(93.165588%, 46.160889%, 9.062195%)" offset="0.308594"/><stop stop-opacity="1" stop-color="rgb(93.066406%, 45.626831%, 9.284973%)" offset="0.3125"/><stop stop-opacity="1" stop-color="rgb(92.965698%, 45.092773%, 9.507751%)" offset="0.316406"/><stop stop-opacity="1" stop-color="rgb(92.86499%, 44.558716%, 9.732056%)" offset="0.320312"/><stop stop-opacity="1" stop-color="rgb(92.764282%, 44.024658%, 9.954834%)" offset="0.324219"/><stop stop-opacity="1" stop-color="rgb(92.663574%, 43.492126%, 10.177612%)" offset="0.328125"/><stop stop-opacity="1" stop-color="rgb(92.562866%, 42.958069%, 10.400391%)" offset="0.332031"/><stop stop-opacity="1" stop-color="rgb(92.462158%, 42.424011%, 10.624695%)" offset="0.335937"/><stop stop-opacity="1" stop-color="rgb(92.36145%, 41.889954%, 10.847473%)" offset="0.339844"/><stop stop-opacity="1" stop-color="rgb(92.260742%, 41.355896%, 11.070251%)" offset="0.34375"/><stop stop-opacity="1" stop-color="rgb(92.160034%, 40.821838%, 11.29303%)" offset="0.347656"/><stop stop-opacity="1" stop-color="rgb(92.060852%, 40.287781%, 11.517334%)" offset="0.351562"/><stop stop-opacity="1" stop-color="rgb(91.960144%, 39.753723%, 11.740112%)" offset="0.355469"/><stop stop-opacity="1" stop-color="rgb(91.859436%, 39.219666%, 11.964417%)" offset="0.359375"/><stop stop-opacity="1" stop-color="rgb(91.758728%, 38.685608%, 12.187195%)" offset="0.363281"/><stop stop-opacity="1" stop-color="rgb(91.65802%, 38.15155%, 12.409973%)" offset="0.367187"/><stop stop-opacity="1" stop-color="rgb(91.557312%, 37.617493%, 12.632751%)" offset="0.371094"/><stop stop-opacity="1" stop-color="rgb(91.456604%, 37.084961%, 12.857056%)" offset="0.375"/><stop stop-opacity="1" stop-color="rgb(91.355896%, 36.550903%, 13.079834%)" offset="0.378906"/><stop stop-opacity="1" stop-color="rgb(91.255188%, 36.016846%, 13.302612%)" offset="0.382813"/><stop stop-opacity="1" stop-color="rgb(91.15448%, 35.482788%, 13.525391%)" offset="0.386719"/><stop stop-opacity="1" stop-color="rgb(91.055298%, 34.94873%, 13.749695%)" offset="0.390625"/><stop stop-opacity="1" stop-color="rgb(90.95459%, 34.414673%, 13.972473%)" offset="0.394531"/><stop stop-opacity="1" stop-color="rgb(90.853882%, 33.880615%, 14.195251%)" offset="0.398438"/><stop stop-opacity="1" stop-color="rgb(90.753174%, 33.346558%, 14.41803%)" offset="0.402344"/><stop stop-opacity="1" stop-color="rgb(90.652466%, 32.8125%, 14.642334%)" offset="0.40625"/><stop stop-opacity="1" stop-color="rgb(90.551758%, 32.278442%, 14.865112%)" offset="0.410156"/><stop stop-opacity="1" stop-color="rgb(90.45105%, 31.744385%, 15.089417%)" offset="0.414063"/><stop stop-opacity="1" stop-color="rgb(90.350342%, 31.210327%, 15.312195%)" offset="0.417969"/><stop stop-opacity="1" stop-color="rgb(90.249634%, 30.677795%, 15.534973%)" offset="0.421875"/><stop stop-opacity="1" stop-color="rgb(90.148926%, 30.143738%, 15.757751%)" offset="0.425781"/><stop stop-opacity="1" stop-color="rgb(90.049744%, 29.60968%, 15.982056%)" offset="0.429688"/><stop stop-opacity="1" stop-color="rgb(89.949036%, 29.075623%, 16.204834%)" offset="0.433594"/><stop stop-opacity="1" stop-color="rgb(89.848328%, 28.541565%, 16.427612%)" offset="0.4375"/><stop stop-opacity="1" stop-color="rgb(89.74762%, 28.007507%, 16.650391%)" offset="0.441406"/><stop stop-opacity="1" stop-color="rgb(89.646912%, 27.47345%, 16.874695%)" offset="0.445312"/><stop stop-opacity="1" stop-color="rgb(89.546204%, 26.939392%, 17.097473%)" offset="0.449219"/><stop stop-opacity="1" stop-color="rgb(89.445496%, 26.405334%, 17.320251%)" offset="0.453125"/><stop stop-opacity="1" stop-color="rgb(89.344788%, 25.871277%, 17.54303%)" offset="0.457031"/><stop stop-opacity="1" stop-color="rgb(89.24408%, 25.338745%, 17.767334%)" offset="0.460938"/><stop stop-opacity="1" stop-color="rgb(89.143372%, 24.804688%, 17.990112%)" offset="0.464844"/><stop stop-opacity="1" stop-color="rgb(89.044189%, 24.27063%, 18.214417%)" offset="0.46875"/><stop stop-opacity="1" stop-color="rgb(88.943481%, 23.736572%, 18.437195%)" offset="0.472656"/><stop stop-opacity="1" stop-color="rgb(88.842773%, 23.202515%, 18.659973%)" offset="0.476562"/><stop stop-opacity="1" stop-color="rgb(88.742065%, 22.668457%, 18.882751%)" offset="0.480469"/><stop stop-opacity="1" stop-color="rgb(88.641357%, 22.134399%, 19.107056%)" offset="0.484375"/><stop stop-opacity="1" stop-color="rgb(88.540649%, 21.600342%, 19.329834%)" offset="0.488281"/><stop stop-opacity="1" stop-color="rgb(88.439941%, 21.066284%, 19.552612%)" offset="0.492188"/><stop stop-opacity="1" stop-color="rgb(88.339233%, 20.532227%, 19.775391%)" offset="0.496094"/><stop stop-opacity="1" stop-color="rgb(88.238525%, 19.999695%, 19.999695%)" offset="0.5"/><stop stop-opacity="1" stop-color="rgb(87.503052%, 20.414734%, 20.892334%)" offset="0.503906"/><stop stop-opacity="1" stop-color="rgb(86.767578%, 20.831299%, 21.784973%)" offset="0.507812"/><stop stop-opacity="1" stop-color="rgb(86.032104%, 21.246338%, 22.677612%)" offset="0.511719"/><stop stop-opacity="1" stop-color="rgb(85.296631%, 21.662903%, 23.571777%)" offset="0.515625"/><stop stop-opacity="1" stop-color="rgb(84.561157%, 22.077942%, 24.464417%)" offset="0.519531"/><stop stop-opacity="1" stop-color="rgb(83.825684%, 22.494507%, 25.357056%)" offset="0.523438"/><stop stop-opacity="1" stop-color="rgb(83.09021%, 22.909546%, 26.249695%)" offset="0.527344"/><stop stop-opacity="1" stop-color="rgb(82.356262%, 23.326111%, 27.142334%)" offset="0.53125"/><stop stop-opacity="1" stop-color="rgb(81.620789%, 23.74115%, 28.034973%)" offset="0.535156"/><stop stop-opacity="1" stop-color="rgb(80.885315%, 24.156189%, 28.929138%)" offset="0.539063"/><stop stop-opacity="1" stop-color="rgb(80.149841%, 24.571228%, 29.821777%)" offset="0.542969"/><stop stop-opacity="1" stop-color="rgb(79.414368%, 24.987793%, 30.714417%)" offset="0.546875"/><stop stop-opacity="1" stop-color="rgb(78.678894%, 25.402832%, 31.607056%)" offset="0.550781"/><stop stop-opacity="1" stop-color="rgb(77.94342%, 25.819397%, 32.499695%)" offset="0.554688"/><stop stop-opacity="1" stop-color="rgb(77.207947%, 26.234436%, 33.392334%)" offset="0.558594"/><stop stop-opacity="1" stop-color="rgb(76.472473%, 26.651001%, 34.284973%)" offset="0.5625"/><stop stop-opacity="1" stop-color="rgb(75.737%, 27.06604%, 35.177612%)" offset="0.566406"/><stop stop-opacity="1" stop-color="rgb(75.001526%, 27.482605%, 36.071777%)" offset="0.570313"/><stop stop-opacity="1" stop-color="rgb(74.266052%, 27.897644%, 36.964417%)" offset="0.574219"/><stop stop-opacity="1" stop-color="rgb(73.530579%, 28.314209%, 37.857056%)" offset="0.578125"/><stop stop-opacity="1" stop-color="rgb(72.795105%, 28.729248%, 38.749695%)" offset="0.582031"/><stop stop-opacity="1" stop-color="rgb(72.061157%, 29.145813%, 39.642334%)" offset="0.585938"/><stop stop-opacity="1" stop-color="rgb(71.325684%, 29.560852%, 40.534973%)" offset="0.589844"/><stop stop-opacity="1" stop-color="rgb(70.59021%, 29.977417%, 41.427612%)" offset="0.59375"/><stop stop-opacity="1" stop-color="rgb(69.854736%, 30.392456%, 42.320251%)" offset="0.597656"/><stop stop-opacity="1" stop-color="rgb(69.119263%, 30.809021%, 43.214417%)" offset="0.601563"/><stop stop-opacity="1" stop-color="rgb(68.383789%, 31.22406%, 44.107056%)" offset="0.605469"/><stop stop-opacity="1" stop-color="rgb(67.648315%, 31.640625%, 44.999695%)" offset="0.609375"/><stop stop-opacity="1" stop-color="rgb(66.912842%, 32.055664%, 45.892334%)" offset="0.613281"/><stop stop-opacity="1" stop-color="rgb(66.177368%, 32.472229%, 46.784973%)" offset="0.617188"/><stop stop-opacity="1" stop-color="rgb(65.441895%, 32.887268%, 47.677612%)" offset="0.621094"/><stop stop-opacity="1" stop-color="rgb(64.706421%, 33.302307%, 48.571777%)" offset="0.625"/><stop stop-opacity="1" stop-color="rgb(63.970947%, 33.717346%, 49.464417%)" offset="0.628906"/><stop stop-opacity="1" stop-color="rgb(63.235474%, 34.133911%, 50.357056%)" offset="0.632812"/><stop stop-opacity="1" stop-color="rgb(62.5%, 34.54895%, 51.249695%)" offset="0.636719"/><stop stop-opacity="1" stop-color="rgb(61.764526%, 34.965515%, 52.142334%)" offset="0.640625"/><stop stop-opacity="1" stop-color="rgb(61.029053%, 35.380554%, 53.034973%)" offset="0.644531"/><stop stop-opacity="1" stop-color="rgb(60.295105%, 35.797119%, 53.927612%)" offset="0.648438"/><stop stop-opacity="1" stop-color="rgb(59.559631%, 36.212158%, 54.820251%)" offset="0.652344"/><stop stop-opacity="1" stop-color="rgb(58.824158%, 36.628723%, 55.714417%)" offset="0.65625"/><stop stop-opacity="1" stop-color="rgb(58.088684%, 37.043762%, 56.607056%)" offset="0.660156"/><stop stop-opacity="1" stop-color="rgb(57.35321%, 37.460327%, 57.499695%)" offset="0.664062"/><stop stop-opacity="1" stop-color="rgb(56.617737%, 37.875366%, 58.392334%)" offset="0.667969"/><stop stop-opacity="1" stop-color="rgb(55.882263%, 38.291931%, 59.284973%)" offset="0.671875"/><stop stop-opacity="1" stop-color="rgb(55.14679%, 38.70697%, 60.177612%)" offset="0.675781"/><stop stop-opacity="1" stop-color="rgb(54.411316%, 39.123535%, 61.070251%)" offset="0.679688"/><stop stop-opacity="1" stop-color="rgb(53.675842%, 39.538574%, 61.962891%)" offset="0.683594"/><stop stop-opacity="1" stop-color="rgb(52.940369%, 39.955139%, 62.857056%)" offset="0.6875"/><stop stop-opacity="1" stop-color="rgb(52.204895%, 40.370178%, 63.749695%)" offset="0.691406"/><stop stop-opacity="1" stop-color="rgb(51.469421%, 40.786743%, 64.642334%)" offset="0.695312"/><stop stop-opacity="1" stop-color="rgb(50.733948%, 41.201782%, 65.534973%)" offset="0.699219"/><stop stop-opacity="1" stop-color="rgb(50%, 41.618347%, 66.427612%)" offset="0.703125"/><stop stop-opacity="1" stop-color="rgb(49.264526%, 42.033386%, 67.320251%)" offset="0.707031"/><stop stop-opacity="1" stop-color="rgb(48.529053%, 42.448425%, 68.214417%)" offset="0.710938"/><stop stop-opacity="1" stop-color="rgb(47.793579%, 42.863464%, 69.107056%)" offset="0.714844"/><stop stop-opacity="1" stop-color="rgb(47.058105%, 43.280029%, 69.999695%)" offset="0.71875"/><stop stop-opacity="1" stop-color="rgb(46.322632%, 43.695068%, 70.892334%)" offset="0.722656"/><stop stop-opacity="1" stop-color="rgb(45.587158%, 44.111633%, 71.784973%)" offset="0.726562"/><stop stop-opacity="1" stop-color="rgb(44.851685%, 44.526672%, 72.677612%)" offset="0.730469"/><stop stop-opacity="1" stop-color="rgb(44.116211%, 44.943237%, 73.570251%)" offset="0.734375"/><stop stop-opacity="1" stop-color="rgb(43.380737%, 45.358276%, 74.462891%)" offset="0.738281"/><stop stop-opacity="1" stop-color="rgb(42.645264%, 45.774841%, 75.357056%)" offset="0.742188"/><stop stop-opacity="1" stop-color="rgb(41.90979%, 46.18988%, 76.249695%)" offset="0.746094"/><stop stop-opacity="1" stop-color="rgb(41.174316%, 46.606445%, 77.142334%)" offset="0.75"/><stop stop-opacity="1" stop-color="rgb(40.438843%, 47.021484%, 78.034973%)" offset="0.753906"/><stop stop-opacity="1" stop-color="rgb(39.703369%, 47.438049%, 78.927612%)" offset="0.757812"/><stop stop-opacity="1" stop-color="rgb(38.967896%, 47.853088%, 79.820251%)" offset="0.761719"/><stop stop-opacity="1" stop-color="rgb(38.233948%, 48.269653%, 80.712891%)" offset="0.765625"/><stop stop-opacity="1" stop-color="rgb(37.498474%, 48.684692%, 81.60553%)" offset="0.769531"/><stop stop-opacity="1" stop-color="rgb(36.763%, 49.101257%, 82.499695%)" offset="0.773438"/><stop stop-opacity="1" stop-color="rgb(36.027527%, 49.516296%, 83.392334%)" offset="0.777344"/><stop stop-opacity="1" stop-color="rgb(35.292053%, 49.932861%, 84.284973%)" offset="0.78125"/><stop stop-opacity="1" stop-color="rgb(34.55658%, 50.3479%, 85.177612%)" offset="0.785156"/><stop stop-opacity="1" stop-color="rgb(33.821106%, 50.764465%, 86.070251%)" offset="0.789062"/><stop stop-opacity="1" stop-color="rgb(33.085632%, 51.179504%, 86.962891%)" offset="0.792969"/><stop stop-opacity="1" stop-color="rgb(32.350159%, 51.594543%, 87.857056%)" offset="0.796875"/><stop stop-opacity="1" stop-color="rgb(31.614685%, 52.009583%, 88.749695%)" offset="0.800781"/><stop stop-opacity="1" stop-color="rgb(30.879211%, 52.426147%, 89.642334%)" offset="0.804688"/><stop stop-opacity="1" stop-color="rgb(30.143738%, 52.841187%, 90.534973%)" offset="0.808594"/><stop stop-opacity="1" stop-color="rgb(29.408264%, 53.257751%, 91.427612%)" offset="0.8125"/><stop stop-opacity="1" stop-color="rgb(28.672791%, 53.672791%, 92.320251%)" offset="0.816406"/><stop stop-opacity="1" stop-color="rgb(27.938843%, 54.089355%, 93.212891%)" offset="0.820312"/><stop stop-opacity="1" stop-color="rgb(27.203369%, 54.504395%, 94.10553%)" offset="0.824219"/><stop stop-opacity="1" stop-color="rgb(26.467896%, 54.920959%, 94.999695%)" offset="0.828125"/><stop stop-opacity="1" stop-color="rgb(25.732422%, 55.335999%, 95.892334%)" offset="0.832031"/><stop stop-opacity="1" stop-color="rgb(24.996948%, 55.752563%, 96.784973%)" offset="0.835938"/><stop stop-opacity="1" stop-color="rgb(24.261475%, 56.167603%, 97.677612%)" offset="0.839844"/><stop stop-opacity="1" stop-color="rgb(23.526001%, 56.584167%, 98.570251%)" offset="0.84375"/><stop stop-opacity="1" stop-color="rgb(22.937012%, 56.916809%, 99.284363%)" offset="0.847656"/><stop stop-opacity="1" stop-color="rgb(22.349548%, 57.249451%, 100%)" offset="0.851562"/><stop stop-opacity="1" stop-color="rgb(22.349548%, 57.249451%, 100%)" offset="0.859375"/><stop stop-opacity="1" stop-color="rgb(22.349548%, 57.249451%, 100%)" offset="0.875"/><stop stop-opacity="1" stop-color="rgb(22.349548%, 57.249451%, 100%)" offset="1"/></linearGradient><clipPath id="a2839e7c5c"><rect x="0" width="74" y="0" height="84"/></clipPath></defs><g transform="matrix(1, 0, 0, 1, 0, 57)"><g clip-path="url(#30847756cf)"><g fill="#ffffff" fill-opacity="1"><g transform="translate(9.946549, 126.948649)"><g><path d="M 42.203125 -80.203125 C 51.328125 -80.203125 58.566406 -77.203125 63.921875 -71.203125 C 68.523438 -65.929688 70.828125 -59.800781 70.828125 -52.8125 C 70.828125 -45.976562 68.6875 -40.015625 64.40625 -34.921875 C 59.0625 -28.671875 51.578125 -25.546875 41.953125 -25.546875 L 22.953125 -25.546875 L 22.953125 0 L 3.703125 0 L 3.703125 -80.203125 Z M 51.203125 -46.03125 C 52.023438 -47.007812 52.644531 -48.160156 53.0625 -49.484375 C 53.382812 -50.628906 53.546875 -51.738281 53.546875 -52.8125 C 53.546875 -53.882812 53.34375 -55.035156 52.9375 -56.265625 C 52.4375 -57.578125 51.773438 -58.726562 50.953125 -59.71875 C 49.066406 -61.851562 46.148438 -62.921875 42.203125 -62.921875 L 22.953125 -62.921875 L 22.953125 -42.8125 L 41.953125 -42.8125 C 44.503906 -42.8125 46.644531 -43.179688 48.375 -43.921875 C 49.519531 -44.585938 50.460938 -45.289062 51.203125 -46.03125 Z M 51.203125 -46.03125 "/></g></g></g><g fill="#ffffff" fill-opacity="1"><g transform="translate(84.468981, 126.948649)"><g><path d="M 70.703125 -52.8125 C 70.703125 -47.625 69.382812 -42.8125 66.75 -38.375 C 63.539062 -33.113281 59.019531 -29.453125 53.1875 -27.390625 L 70.453125 0 L 48.859375 0 L 32.078125 -25.546875 L 22.953125 -25.546875 L 22.953125 0 L 3.703125 0 L 3.703125 -80.203125 L 42.078125 -80.203125 C 51.203125 -80.203125 58.441406 -77.203125 63.796875 -71.203125 C 68.398438 -65.929688 70.703125 -59.800781 70.703125 -52.8125 Z M 22.953125 -62.921875 L 22.953125 -42.8125 L 41.953125 -42.8125 C 44.585938 -42.8125 46.6875 -43.179688 48.25 -43.921875 C 49.5625 -44.660156 50.503906 -45.363281 51.078125 -46.03125 C 51.898438 -47.007812 52.519531 -48.160156 52.9375 -49.484375 C 53.257812 -50.628906 53.421875 -51.738281 53.421875 -52.8125 C 53.421875 -53.957031 53.257812 -55.109375 52.9375 -56.265625 C 52.4375 -57.578125 51.738281 -58.726562 50.84375 -59.71875 C 49.03125 -61.851562 46.109375 -62.921875 42.078125 -62.921875 Z M 22.953125 -62.921875 "/></g></g></g><g fill="#ffffff" fill-opacity="1"><g transform="translate(158.868024, 126.948649)"><g><path d="M 22.953125 -31.46875 L 22.953125 -17.28125 L 59.71875 -17.28125 L 59.71875 0 L 3.703125 0 L 3.703125 -80.203125 L 59.71875 -80.203125 L 59.71875 -62.921875 L 22.953125 -62.921875 L 22.953125 -48.734375 L 54.171875 -48.734375 L 54.171875 -31.46875 Z M 22.953125 -31.46875 "/></g></g></g><g fill="#ffffff" fill-opacity="1"><g transform="translate(217.967411, 126.948649)"><g><path d="M 36.40625 0.125 C 30.96875 0.125 26.195312 -0.65625 22.09375 -2.21875 C 18.800781 -3.53125 15.425781 -5.710938 11.96875 -8.765625 C 8.019531 -12.378906 5.507812 -16.859375 4.4375 -22.203125 C 4.03125 -23.929688 3.828125 -25.660156 3.828125 -27.390625 C 3.742188 -27.960938 3.742188 -28.539062 3.828125 -29.125 L 3.828125 -29.984375 L 20.734375 -29.734375 L 20.734375 -29.859375 C 20.734375 -26.816406 21.390625 -24.304688 22.703125 -22.328125 C 25.171875 -18.628906 29.738281 -16.78125 36.40625 -16.78125 C 47.09375 -16.78125 52.4375 -19.289062 52.4375 -24.3125 C 52.4375 -29.164062 46.925781 -32.207031 35.90625 -33.4375 C 29.570312 -34.175781 24.144531 -35.492188 19.625 -37.390625 C 15.425781 -39.117188 12.007812 -41.421875 9.375 -44.296875 C 5.675781 -48.410156 3.828125 -53.179688 3.828125 -58.609375 C 3.828125 -61.984375 4.441406 -65.148438 5.671875 -68.109375 C 6.578125 -70.328125 7.8125 -72.34375 9.375 -74.15625 C 15.132812 -80.65625 24.265625 -83.90625 36.765625 -83.90625 C 44.253906 -83.90625 50.585938 -82.425781 55.765625 -79.46875 C 59.722656 -77.238281 62.929688 -74.273438 65.390625 -70.578125 C 67.203125 -67.785156 68.476562 -64.578125 69.21875 -60.953125 C 69.46875 -59.722656 69.632812 -58.488281 69.71875 -57.25 C 69.800781 -56.84375 69.84375 -56.429688 69.84375 -56.015625 L 69.84375 -55.28125 L 52.9375 -55.28125 L 52.9375 -55.15625 C 53.019531 -57.625 52.398438 -59.722656 51.078125 -61.453125 C 48.453125 -65.148438 43.679688 -67 36.765625 -67 C 32.578125 -67 29.125 -66.460938 26.40625 -65.390625 C 23.03125 -64.078125 21.34375 -62.1875 21.34375 -59.71875 C 21.34375 -54.625 26.8125 -51.457031 37.75 -50.21875 C 50.09375 -48.820312 58.976562 -45 64.40625 -38.75 C 68.03125 -34.46875 69.84375 -29.65625 69.84375 -24.3125 L 69.84375 -23.203125 C 69.84375 -22.703125 69.800781 -22.207031 69.71875 -21.71875 C 69.632812 -20.40625 69.46875 -19.171875 69.21875 -18.015625 C 68.394531 -14.722656 66.832031 -11.800781 64.53125 -9.25 C 61.820312 -6.207031 58.160156 -3.863281 53.546875 -2.21875 C 48.941406 -0.65625 43.226562 0.125 36.40625 0.125 Z M 36.40625 0.125 "/></g></g></g><g fill="#ffffff" fill-opacity="1"><g transform="translate(291.502786, 126.948649)"><g><path d="M 36.40625 0.125 C 30.96875 0.125 26.195312 -0.65625 22.09375 -2.21875 C 18.800781 -3.53125 15.425781 -5.710938 11.96875 -8.765625 C 8.019531 -12.378906 5.507812 -16.859375 4.4375 -22.203125 C 4.03125 -23.929688 3.828125 -25.660156 3.828125 -27.390625 C 3.742188 -27.960938 3.742188 -28.539062 3.828125 -29.125 L 3.828125 -29.984375 L 20.734375 -29.734375 L 20.734375 -29.859375 C 20.734375 -26.816406 21.390625 -24.304688 22.703125 -22.328125 C 25.171875 -18.628906 29.738281 -16.78125 36.40625 -16.78125 C 47.09375 -16.78125 52.4375 -19.289062 52.4375 -24.3125 C 52.4375 -29.164062 46.925781 -32.207031 35.90625 -33.4375 C 29.570312 -34.175781 24.144531 -35.492188 19.625 -37.390625 C 15.425781 -39.117188 12.007812 -41.421875 9.375 -44.296875 C 5.675781 -48.410156 3.828125 -53.179688 3.828125 -58.609375 C 3.828125 -61.984375 4.441406 -65.148438 5.671875 -68.109375 C 6.578125 -70.328125 7.8125 -72.34375 9.375 -74.15625 C 15.132812 -80.65625 24.265625 -83.90625 36.765625 -83.90625 C 44.253906 -83.90625 50.585938 -82.425781 55.765625 -79.46875 C 59.722656 -77.238281 62.929688 -74.273438 65.390625 -70.578125 C 67.203125 -67.785156 68.476562 -64.578125 69.21875 -60.953125 C 69.46875 -59.722656 69.632812 -58.488281 69.71875 -57.25 C 69.800781 -56.84375 69.84375 -56.429688 69.84375 -56.015625 L 69.84375 -55.28125 L 52.9375 -55.28125 L 52.9375 -55.15625 C 53.019531 -57.625 52.398438 -59.722656 51.078125 -61.453125 C 48.453125 -65.148438 43.679688 -67 36.765625 -67 C 32.578125 -67 29.125 -66.460938 26.40625 -65.390625 C 23.03125 -64.078125 21.34375 -62.1875 21.34375 -59.71875 C 21.34375 -54.625 26.8125 -51.457031 37.75 -50.21875 C 50.09375 -48.820312 58.976562 -45 64.40625 -38.75 C 68.03125 -34.46875 69.84375 -29.65625 69.84375 -24.3125 L 69.84375 -23.203125 C 69.84375 -22.703125 69.800781 -22.207031 69.71875 -21.71875 C 69.632812 -20.40625 69.46875 -19.171875 69.21875 -18.015625 C 68.394531 -14.722656 66.832031 -11.800781 64.53125 -9.25 C 61.820312 -6.207031 58.160156 -3.863281 53.546875 -2.21875 C 48.941406 -0.65625 43.226562 0.125 36.40625 0.125 Z M 36.40625 0.125 "/></g></g></g><g fill="#ffffff" fill-opacity="1"><g transform="translate(0.0000045, 225.498512)"><g><path d="M 36.40625 0.125 C 30.96875 0.125 26.195312 -0.65625 22.09375 -2.21875 C 18.800781 -3.53125 15.425781 -5.710938 11.96875 -8.765625 C 8.019531 -12.378906 5.507812 -16.859375 4.4375 -22.203125 C 4.03125 -23.929688 3.828125 -25.660156 3.828125 -27.390625 C 3.742188 -27.960938 3.742188 -28.539062 3.828125 -29.125 L 3.828125 -29.984375 L 20.734375 -29.734375 L 20.734375 -29.859375 C 20.734375 -26.816406 21.390625 -24.304688 22.703125 -22.328125 C 25.171875 -18.628906 29.738281 -16.78125 36.40625 -16.78125 C 47.09375 -16.78125 52.4375 -19.289062 52.4375 -24.3125 C 52.4375 -29.164062 46.925781 -32.207031 35.90625 -33.4375 C 29.570312 -34.175781 24.144531 -35.492188 19.625 -37.390625 C 15.425781 -39.117188 12.007812 -41.421875 9.375 -44.296875 C 5.675781 -48.410156 3.828125 -53.179688 3.828125 -58.609375 C 3.828125 -61.984375 4.441406 -65.148438 5.671875 -68.109375 C 6.578125 -70.328125 7.8125 -72.34375 9.375 -74.15625 C 15.132812 -80.65625 24.265625 -83.90625 36.765625 -83.90625 C 44.253906 -83.90625 50.585938 -82.425781 55.765625 -79.46875 C 59.722656 -77.238281 62.929688 -74.273438 65.390625 -70.578125 C 67.203125 -67.785156 68.476562 -64.578125 69.21875 -60.953125 C 69.46875 -59.722656 69.632812 -58.488281 69.71875 -57.25 C 69.800781 -56.84375 69.84375 -56.429688 69.84375 -56.015625 L 69.84375 -55.28125 L 52.9375 -55.28125 L 52.9375 -55.15625 C 53.019531 -57.625 52.398438 -59.722656 51.078125 -61.453125 C 48.453125 -65.148438 43.679688 -67 36.765625 -67 C 32.578125 -67 29.125 -66.460938 26.40625 -65.390625 C 23.03125 -64.078125 21.34375 -62.1875 21.34375 -59.71875 C 21.34375 -54.625 26.8125 -51.457031 37.75 -50.21875 C 50.09375 -48.820312 58.976562 -45 64.40625 -38.75 C 68.03125 -34.46875 69.84375 -29.65625 69.84375 -24.3125 L 69.84375 -23.203125 C 69.84375 -22.703125 69.800781 -22.207031 69.71875 -21.71875 C 69.632812 -20.40625 69.46875 -19.171875 69.21875 -18.015625 C 68.394531 -14.722656 66.832031 -11.800781 64.53125 -9.25 C 61.820312 -6.207031 58.160156 -3.863281 53.546875 -2.21875 C 48.941406 -0.65625 43.226562 0.125 36.40625 0.125 Z M 36.40625 0.125 "/></g></g></g><g fill="#ffffff" fill-opacity="1"><g transform="translate(73.53538, 225.498512)"><g><path d="M 64.65625 -60.953125 L 43.796875 -60.953125 L 43.796875 0 L 24.5625 0 L 24.5625 -60.953125 L 3.703125 -60.953125 L 3.703125 -80.203125 L 64.65625 -80.203125 Z M 64.65625 -60.953125 "/></g></g></g><g fill="#ffffff" fill-opacity="1"><g transform="translate(140.791467, 225.498512)"><g/></g></g><g fill="#ffffff" fill-opacity="1"><g transform="translate(172.87066, 225.498512)"><g/></g></g><g fill="#ffffff" fill-opacity="1"><g transform="translate(204.949853, 225.498512)"><g/></g></g><g fill="#ffffff" fill-opacity="1"><g transform="translate(237.038508, 225.498512)"><g><path d="M 70.703125 -52.8125 C 70.703125 -47.625 69.382812 -42.8125 66.75 -38.375 C 63.539062 -33.113281 59.019531 -29.453125 53.1875 -27.390625 L 70.453125 0 L 48.859375 0 L 32.078125 -25.546875 L 22.953125 -25.546875 L 22.953125 0 L 3.703125 0 L 3.703125 -80.203125 L 42.078125 -80.203125 C 51.203125 -80.203125 58.441406 -77.203125 63.796875 -71.203125 C 68.398438 -65.929688 70.703125 -59.800781 70.703125 -52.8125 Z M 22.953125 -62.921875 L 22.953125 -42.8125 L 41.953125 -42.8125 C 44.585938 -42.8125 46.6875 -43.179688 48.25 -43.921875 C 49.5625 -44.660156 50.503906 -45.363281 51.078125 -46.03125 C 51.898438 -47.007812 52.519531 -48.160156 52.9375 -49.484375 C 53.257812 -50.628906 53.421875 -51.738281 53.421875 -52.8125 C 53.421875 -53.957031 53.257812 -55.109375 52.9375 -56.265625 C 52.4375 -57.578125 51.738281 -58.726562 50.84375 -59.71875 C 49.03125 -61.851562 46.109375 -62.921875 42.078125 -62.921875 Z M 22.953125 -62.921875 "/></g></g></g><g fill="#ffffff" fill-opacity="1"><g transform="translate(307.735803, 225.498512)"><g><path d="M 64.65625 -60.953125 L 43.796875 -60.953125 L 43.796875 0 L 24.5625 0 L 24.5625 -60.953125 L 3.703125 -60.953125 L 3.703125 -80.203125 L 64.65625 -80.203125 Z M 64.65625 -60.953125 "/></g></g></g></g></g><g clip-path="url(#770932488b)"><g clip-path="url(#10c3f6063e)"><g transform="matrix(1, 0, 0, 1, 156, 203)"><g clip-path="url(#a2839e7c5c)"><g clip-path="url(#962b4a856b)"><g clip-path="url(#9b829ab67e)"><path fill="url(#48bae65c51)" d="M 73.074219 0.976562 L 0.941406 0.976562 L 0.941406 83.414062 L 73.074219 83.414062 Z M 73.074219 0.976562 " fill-rule="nonzero"/></g></g></g></g></g></g></svg>