<svg xmlns="http://www.w3.org/2000/svg" xmlns:xlink="http://www.w3.org/1999/xlink" width="500" zoomAndPan="magnify" viewBox="0 0 375 149.999998" height="200" preserveAspectRatio="xMidYMid meet" version="1.0"><defs><g/><clipPath id="01f67621c8"><rect x="0" width="223" y="0" height="89"/></clipPath><clipPath id="e6d9fdff2c"><rect x="0" width="227" y="0" height="93"/></clipPath><clipPath id="10e2a981dc"><rect x="0" width="29" y="0" height="89"/></clipPath><clipPath id="9419d62ac0"><rect x="0" width="46" y="0" height="93"/></clipPath></defs><g transform="matrix(1, 0, 0, 1, 27, 9)"><g clip-path="url(#01f67621c8)"><g fill="#000000" fill-opacity="1"><g transform="translate(0.52366, 68.914935)"><g><path d="M 13.671875 0.671875 C 11.421875 0.671875 9.46875 0.257812 7.8125 -0.5625 C 6.164062 -1.394531 4.894531 -2.609375 4 -4.203125 C 3.113281 -5.804688 2.671875 -7.734375 2.671875 -9.984375 C 2.671875 -12.054688 3.113281 -13.796875 4 -15.203125 C 4.894531 -16.617188 6.273438 -17.773438 8.140625 -18.671875 C 10.003906 -19.578125 12.441406 -20.269531 15.453125 -20.75 C 17.546875 -21.09375 19.140625 -21.460938 20.234375 -21.859375 C 21.328125 -22.265625 22.0625 -22.722656 22.4375 -23.234375 C 22.820312 -23.742188 23.015625 -24.390625 23.015625 -25.171875 C 23.015625 -26.296875 22.617188 -27.15625 21.828125 -27.75 C 21.046875 -28.34375 19.742188 -28.640625 17.921875 -28.640625 C 15.972656 -28.640625 14.117188 -28.203125 12.359375 -27.328125 C 10.597656 -26.460938 9.070312 -25.320312 7.78125 -23.90625 L 7.15625 -23.90625 L 3.46875 -29.46875 C 5.25 -31.4375 7.421875 -32.96875 9.984375 -34.0625 C 12.546875 -35.164062 15.34375 -35.71875 18.375 -35.71875 C 23.007812 -35.71875 26.363281 -34.734375 28.4375 -32.765625 C 30.519531 -30.796875 31.5625 -28 31.5625 -24.375 L 31.5625 -9.15625 C 31.5625 -7.582031 32.25 -6.796875 33.625 -6.796875 C 34.15625 -6.796875 34.675781 -6.894531 35.1875 -7.09375 L 35.625 -6.953125 L 36.265625 -0.828125 C 35.773438 -0.503906 35.09375 -0.242188 34.21875 -0.046875 C 33.351562 0.148438 32.40625 0.25 31.375 0.25 C 29.269531 0.25 27.628906 -0.148438 26.453125 -0.953125 C 25.285156 -1.753906 24.445312 -3.015625 23.9375 -4.734375 L 23.265625 -4.796875 C 21.546875 -1.148438 18.347656 0.671875 13.671875 0.671875 Z M 16.46875 -5.90625 C 18.5 -5.90625 20.125 -6.585938 21.34375 -7.953125 C 22.5625 -9.328125 23.171875 -11.234375 23.171875 -13.671875 L 23.171875 -17.234375 L 22.5625 -17.359375 C 22.03125 -16.929688 21.335938 -16.570312 20.484375 -16.28125 C 19.628906 -16 18.394531 -15.722656 16.78125 -15.453125 C 14.875 -15.128906 13.5 -14.582031 12.65625 -13.8125 C 11.820312 -13.039062 11.40625 -11.941406 11.40625 -10.515625 C 11.40625 -9.015625 11.847656 -7.867188 12.734375 -7.078125 C 13.628906 -6.296875 14.875 -5.90625 16.46875 -5.90625 Z M 16.46875 -5.90625 "/></g></g></g><g fill="#000000" fill-opacity="1"><g transform="translate(37.483747, 68.914935)"><g><path d="M 5.046875 0 L 5.046875 -35.0625 L 13.515625 -35.0625 L 13.515625 -29.90625 L 14.171875 -29.75 C 16.359375 -33.726562 19.898438 -35.71875 24.796875 -35.71875 C 28.835938 -35.71875 31.804688 -34.613281 33.703125 -32.40625 C 35.597656 -30.207031 36.546875 -27.003906 36.546875 -22.796875 L 36.546875 0 L 27.75 0 L 27.75 -21.703125 C 27.75 -24.035156 27.28125 -25.710938 26.34375 -26.734375 C 25.414062 -27.765625 23.925781 -28.28125 21.875 -28.28125 C 19.34375 -28.28125 17.375 -27.460938 15.96875 -25.828125 C 14.5625 -24.203125 13.859375 -21.644531 13.859375 -18.15625 L 13.859375 0 Z M 5.046875 0 "/></g></g></g><g fill="#00bf63" fill-opacity="1"><g transform="translate(78.545124, 68.914935)"><g><path d="M 17.328125 0.671875 C 14.546875 0.671875 12.085938 0 9.953125 -1.34375 C 7.828125 -2.695312 6.160156 -4.734375 4.953125 -7.453125 C 3.742188 -10.171875 3.140625 -13.523438 3.140625 -17.515625 C 3.140625 -21.515625 3.757812 -24.875 5 -27.59375 C 6.238281 -30.320312 7.953125 -32.359375 10.140625 -33.703125 C 12.335938 -35.046875 14.878906 -35.71875 17.765625 -35.71875 C 19.953125 -35.71875 21.84375 -35.34375 23.4375 -34.59375 C 25.039062 -33.84375 26.394531 -32.671875 27.5 -31.078125 L 28.15625 -31.25 L 28.15625 -49.140625 L 36.96875 -49.140625 L 36.96875 0 L 28.15625 0 L 28.15625 -4.546875 L 27.5 -4.671875 C 26.519531 -3.015625 25.179688 -1.707031 23.484375 -0.75 C 21.796875 0.195312 19.742188 0.671875 17.328125 0.671875 Z M 20.1875 -6.796875 C 22.664062 -6.796875 24.625 -7.679688 26.0625 -9.453125 C 27.5 -11.222656 28.21875 -13.910156 28.21875 -17.515625 C 28.21875 -21.117188 27.5 -23.804688 26.0625 -25.578125 C 24.625 -27.359375 22.664062 -28.25 20.1875 -28.25 C 17.601562 -28.25 15.625 -27.382812 14.25 -25.65625 C 12.882812 -23.9375 12.203125 -21.222656 12.203125 -17.515625 C 12.203125 -13.828125 12.882812 -11.117188 14.25 -9.390625 C 15.625 -7.660156 17.601562 -6.796875 20.1875 -6.796875 Z M 20.1875 -6.796875 "/></g></g></g><g fill="#000000" fill-opacity="1"><g transform="translate(120.559173, 68.914935)"><g><path d="M 20.375 0.671875 C 16.9375 0.671875 13.921875 -0.03125 11.328125 -1.4375 C 8.734375 -2.851562 6.71875 -4.921875 5.28125 -7.640625 C 3.851562 -10.367188 3.140625 -13.660156 3.140625 -17.515625 C 3.140625 -21.367188 3.851562 -24.660156 5.28125 -27.390625 C 6.71875 -30.128906 8.734375 -32.203125 11.328125 -33.609375 C 13.921875 -35.015625 16.9375 -35.71875 20.375 -35.71875 C 23.800781 -35.71875 26.8125 -35.015625 29.40625 -33.609375 C 32.007812 -32.203125 34.03125 -30.128906 35.46875 -27.390625 C 36.90625 -24.660156 37.625 -21.367188 37.625 -17.515625 C 37.625 -13.660156 36.90625 -10.367188 35.46875 -7.640625 C 34.03125 -4.921875 32.007812 -2.851562 29.40625 -1.4375 C 26.8125 -0.03125 23.800781 0.671875 20.375 0.671875 Z M 20.375 -6.796875 C 25.820312 -6.796875 28.546875 -10.367188 28.546875 -17.515625 C 28.546875 -21.222656 27.84375 -23.9375 26.4375 -25.65625 C 25.039062 -27.382812 23.019531 -28.25 20.375 -28.25 C 14.925781 -28.25 12.203125 -24.671875 12.203125 -17.515625 C 12.203125 -10.367188 14.925781 -6.796875 20.375 -6.796875 Z M 20.375 -6.796875 "/></g></g></g><g fill="#000000" fill-opacity="1"><g transform="translate(161.301074, 68.914935)"><g><path d="M 5.046875 0 L 5.046875 -35.0625 L 13.515625 -35.0625 L 13.515625 -30.359375 L 14.171875 -30.234375 C 15.316406 -32.117188 16.65625 -33.503906 18.1875 -34.390625 C 19.726562 -35.273438 21.695312 -35.71875 24.09375 -35.71875 C 26.738281 -35.71875 28.863281 -35.191406 30.46875 -34.140625 C 32.082031 -33.097656 33.265625 -31.570312 34.015625 -29.5625 L 34.671875 -29.5625 C 35.753906 -31.65625 37.148438 -33.203125 38.859375 -34.203125 C 40.566406 -35.210938 42.691406 -35.71875 45.234375 -35.71875 C 52.492188 -35.71875 56.125 -31.671875 56.125 -23.578125 L 56.125 0 L 47.328125 0 L 47.328125 -22.46875 C 47.328125 -24.519531 46.921875 -26 46.109375 -26.90625 C 45.304688 -27.820312 44.015625 -28.28125 42.234375 -28.28125 C 37.410156 -28.28125 35 -25.050781 35 -18.59375 L 35 0 L 26.1875 0 L 26.1875 -22.46875 C 26.1875 -24.519531 25.78125 -26 24.96875 -26.90625 C 24.15625 -27.820312 22.859375 -28.28125 21.078125 -28.28125 C 18.804688 -28.28125 17.035156 -27.523438 15.765625 -26.015625 C 14.492188 -24.503906 13.859375 -22.09375 13.859375 -18.78125 L 13.859375 0 Z M 5.046875 0 "/></g></g></g></g></g><g transform="matrix(1, 0, 0, 1, 148, 48)"><g clip-path="url(#e6d9fdff2c)"><g fill="#00bf63" fill-opacity="1"><g transform="translate(0.237436, 71.686053)"><g><path d="M 36.34375 -16.3125 L 12.703125 -16.3125 C 12.972656 -13.101562 13.882812 -10.769531 15.4375 -9.3125 C 17 -7.863281 19.125 -7.140625 21.8125 -7.140625 C 23.925781 -7.140625 25.632812 -7.53125 26.9375 -8.3125 C 28.25 -9.101562 29.304688 -10.300781 30.109375 -11.90625 L 30.8125 -11.90625 L 36.953125 -7.96875 C 35.753906 -5.394531 33.941406 -3.304688 31.515625 -1.703125 C 29.085938 -0.0976562 25.851562 0.703125 21.8125 0.703125 C 18.007812 0.703125 14.722656 -0.0195312 11.953125 -1.46875 C 9.179688 -2.914062 7.046875 -5.066406 5.546875 -7.921875 C 4.046875 -10.773438 3.296875 -14.257812 3.296875 -18.375 C 3.296875 -22.550781 4.082031 -26.070312 5.65625 -28.9375 C 7.238281 -31.8125 9.375 -33.953125 12.0625 -35.359375 C 14.757812 -36.773438 17.785156 -37.484375 21.140625 -37.484375 C 26.347656 -37.484375 30.332031 -36.101562 33.09375 -33.34375 C 35.863281 -30.59375 37.25 -26.546875 37.25 -21.203125 C 37.25 -19.273438 37.179688 -17.773438 37.046875 -16.703125 Z M 28.40625 -22.28125 C 28.320312 -25.082031 27.671875 -27.117188 26.453125 -28.390625 C 25.242188 -29.671875 23.472656 -30.3125 21.140625 -30.3125 C 16.472656 -30.3125 13.726562 -27.632812 12.90625 -22.28125 Z M 28.40625 -22.28125 "/></g></g></g><g fill="#00bf63" fill-opacity="1"><g transform="translate(40.218374, 71.686053)"><g><path d="M 25.3125 0 L 14.3125 0 L 0.703125 -36.78125 L 10.375 -36.78125 L 19.515625 -10.578125 L 20.28125 -10.578125 L 29.453125 -36.78125 L 38.890625 -36.78125 Z M 25.3125 0 "/></g></g></g><g fill="#00bf63" fill-opacity="1"><g transform="translate(79.065526, 71.686053)"><g><path d="M 36.34375 -16.3125 L 12.703125 -16.3125 C 12.972656 -13.101562 13.882812 -10.769531 15.4375 -9.3125 C 17 -7.863281 19.125 -7.140625 21.8125 -7.140625 C 23.925781 -7.140625 25.632812 -7.53125 26.9375 -8.3125 C 28.25 -9.101562 29.304688 -10.300781 30.109375 -11.90625 L 30.8125 -11.90625 L 36.953125 -7.96875 C 35.753906 -5.394531 33.941406 -3.304688 31.515625 -1.703125 C 29.085938 -0.0976562 25.851562 0.703125 21.8125 0.703125 C 18.007812 0.703125 14.722656 -0.0195312 11.953125 -1.46875 C 9.179688 -2.914062 7.046875 -5.066406 5.546875 -7.921875 C 4.046875 -10.773438 3.296875 -14.257812 3.296875 -18.375 C 3.296875 -22.550781 4.082031 -26.070312 5.65625 -28.9375 C 7.238281 -31.8125 9.375 -33.953125 12.0625 -35.359375 C 14.757812 -36.773438 17.785156 -37.484375 21.140625 -37.484375 C 26.347656 -37.484375 30.332031 -36.101562 33.09375 -33.34375 C 35.863281 -30.59375 37.25 -26.546875 37.25 -21.203125 C 37.25 -19.273438 37.179688 -17.773438 37.046875 -16.703125 Z M 28.40625 -22.28125 C 28.320312 -25.082031 27.671875 -27.117188 26.453125 -28.390625 C 25.242188 -29.671875 23.472656 -30.3125 21.140625 -30.3125 C 16.472656 -30.3125 13.726562 -27.632812 12.90625 -22.28125 Z M 28.40625 -22.28125 "/></g></g></g><g fill="#00bf63" fill-opacity="1"><g transform="translate(119.046465, 71.686053)"><g><path d="M 15.265625 0.703125 C 11.953125 0.703125 9.421875 -0.191406 7.671875 -1.984375 C 5.929688 -3.773438 5.0625 -6.492188 5.0625 -10.140625 L 5.0625 -51.5625 L 14.3125 -51.5625 L 14.3125 -10.5 C 14.3125 -8.257812 15.242188 -7.140625 17.109375 -7.140625 C 17.640625 -7.140625 18.207031 -7.226562 18.8125 -7.40625 L 19.28125 -7.265625 L 20.109375 -0.171875 C 19.597656 0.0976562 18.921875 0.3125 18.078125 0.46875 C 17.234375 0.625 16.296875 0.703125 15.265625 0.703125 Z M 15.265625 0.703125 "/></g></g></g><g fill="#00bf63" fill-opacity="1"><g transform="translate(140.187344, 71.686053)"><g><path d="M 21.375 0.703125 C 17.769531 0.703125 14.601562 -0.0351562 11.875 -1.515625 C 9.15625 -2.992188 7.046875 -5.160156 5.546875 -8.015625 C 4.046875 -10.878906 3.296875 -14.332031 3.296875 -18.375 C 3.296875 -22.414062 4.046875 -25.867188 5.546875 -28.734375 C 7.046875 -31.609375 9.15625 -33.785156 11.875 -35.265625 C 14.601562 -36.742188 17.769531 -37.484375 21.375 -37.484375 C 24.976562 -37.484375 28.140625 -36.742188 30.859375 -35.265625 C 33.585938 -33.785156 35.707031 -31.609375 37.21875 -28.734375 C 38.726562 -25.867188 39.484375 -22.414062 39.484375 -18.375 C 39.484375 -14.332031 38.726562 -10.878906 37.21875 -8.015625 C 35.707031 -5.160156 33.585938 -2.992188 30.859375 -1.515625 C 28.140625 -0.0351562 24.976562 0.703125 21.375 0.703125 Z M 21.375 -7.140625 C 27.09375 -7.140625 29.953125 -10.882812 29.953125 -18.375 C 29.953125 -22.257812 29.21875 -25.109375 27.75 -26.921875 C 26.28125 -28.734375 24.15625 -29.640625 21.375 -29.640625 C 15.664062 -29.640625 12.8125 -25.882812 12.8125 -18.375 C 12.8125 -10.882812 15.664062 -7.140625 21.375 -7.140625 Z M 21.375 -7.140625 "/></g></g></g><g fill="#00bf63" fill-opacity="1"><g transform="translate(182.935936, 71.686053)"><g><path d="M 5.296875 14.90625 L 5.296875 -36.78125 L 14.546875 -36.78125 L 14.546875 -31.984375 L 15.234375 -31.84375 C 16.328125 -33.71875 17.785156 -35.125 19.609375 -36.0625 C 21.429688 -37.007812 23.566406 -37.484375 26.015625 -37.484375 C 28.972656 -37.484375 31.554688 -36.78125 33.765625 -35.375 C 35.972656 -33.976562 37.691406 -31.847656 38.921875 -28.984375 C 40.160156 -26.128906 40.78125 -22.59375 40.78125 -18.375 C 40.78125 -14.175781 40.128906 -10.648438 38.828125 -7.796875 C 37.535156 -4.953125 35.734375 -2.820312 33.421875 -1.40625 C 31.109375 0 28.4375 0.703125 25.40625 0.703125 C 23.113281 0.703125 21.132812 0.320312 19.46875 -0.4375 C 17.800781 -1.207031 16.390625 -2.40625 15.234375 -4.03125 L 14.546875 -3.90625 L 14.546875 14.90625 Z M 22.84375 -7.140625 C 25.601562 -7.140625 27.691406 -8.035156 29.109375 -9.828125 C 30.535156 -11.628906 31.25 -14.476562 31.25 -18.375 C 31.25 -22.257812 30.535156 -25.109375 29.109375 -26.921875 C 27.691406 -28.734375 25.601562 -29.640625 22.84375 -29.640625 C 20.257812 -29.640625 18.210938 -28.707031 16.703125 -26.84375 C 15.191406 -24.976562 14.4375 -22.15625 14.4375 -18.375 C 14.4375 -14.613281 15.191406 -11.800781 16.703125 -9.9375 C 18.210938 -8.070312 20.257812 -7.140625 22.84375 -7.140625 Z M 22.84375 -7.140625 "/></g></g></g></g></g><g transform="matrix(1, 0, 0, 1, 0, 9)"><g clip-path="url(#10e2a981dc)"><g fill="#00bf63" fill-opacity="1"><g transform="translate(0.000003125, 68.914935)"><g><path d="M 5.046875 0 L 5.046875 -35.0625 L 13.609375 -35.0625 L 13.609375 -29.84375 L 14.265625 -29.71875 C 15.117188 -31.664062 16.234375 -33.09375 17.609375 -34 C 18.984375 -34.914062 20.65625 -35.375 22.625 -35.375 C 24.625 -35.375 26.140625 -35.035156 27.171875 -34.359375 L 25.6875 -26.765625 L 25.015625 -26.640625 C 24.441406 -26.867188 23.890625 -27.035156 23.359375 -27.140625 C 22.828125 -27.242188 22.179688 -27.296875 21.421875 -27.296875 C 18.960938 -27.296875 17.085938 -26.429688 15.796875 -24.703125 C 14.503906 -22.984375 13.859375 -20.21875 13.859375 -16.40625 L 13.859375 0 Z M 5.046875 0 "/></g></g></g></g></g><g transform="matrix(1, 0, 0, 1, 103, 48)"><g clip-path="url(#9419d62ac0)"><g fill="#00bf63" fill-opacity="1"><g transform="translate(1.151018, 71.686053)"><g><path d="M 18.171875 0.703125 C 15.265625 0.703125 12.691406 0 10.453125 -1.40625 C 8.222656 -2.820312 6.472656 -4.957031 5.203125 -7.8125 C 3.929688 -10.675781 3.296875 -14.195312 3.296875 -18.375 C 3.296875 -22.570312 3.945312 -26.097656 5.25 -28.953125 C 6.550781 -31.816406 8.351562 -33.953125 10.65625 -35.359375 C 12.957031 -36.773438 15.617188 -37.484375 18.640625 -37.484375 C 20.929688 -37.484375 22.914062 -37.085938 24.59375 -36.296875 C 26.269531 -35.503906 27.6875 -34.273438 28.84375 -32.609375 L 29.546875 -32.78125 L 29.546875 -51.5625 L 38.78125 -51.5625 L 38.78125 0 L 29.546875 0 L 29.546875 -4.765625 L 28.84375 -4.90625 C 27.820312 -3.164062 26.421875 -1.796875 24.640625 -0.796875 C 22.859375 0.203125 20.703125 0.703125 18.171875 0.703125 Z M 21.171875 -7.140625 C 23.773438 -7.140625 25.832031 -8.066406 27.34375 -9.921875 C 28.851562 -11.773438 29.609375 -14.59375 29.609375 -18.375 C 29.609375 -22.15625 28.851562 -24.976562 27.34375 -26.84375 C 25.832031 -28.707031 23.773438 -29.640625 21.171875 -29.640625 C 18.460938 -29.640625 16.390625 -28.734375 14.953125 -26.921875 C 13.523438 -25.109375 12.8125 -22.257812 12.8125 -18.375 C 12.8125 -14.507812 13.523438 -11.671875 14.953125 -9.859375 C 16.390625 -8.046875 18.460938 -7.140625 21.171875 -7.140625 Z M 21.171875 -7.140625 "/></g></g></g></g></g></svg>